<?xml version="1.0" encoding="UTF-8"?>
<svg width="48px" height="48px" viewBox="0 0 48 48" version="1.1" xmlns="http://www.w3.org/2000/svg" xmlns:xlink="http://www.w3.org/1999/xlink">
    <title>bilibili</title>
    <g id="bilibili" stroke="none" stroke-width="1" fill="none" fill-rule="evenodd">
        <g id="编组" transform="translate(0.000000, 2.000000)" fill="#FFFFFF" fill-rule="nonzero">
            <path d="M12.4127034,0.69777579 L20.1927688,8.39548759 L27.8041375,8.39548759 L35.58628,0.700835555 C36.529335,-0.194042092 38.0227781,-0.178869631 38.9470473,0.734978877 C39.8713165,1.64882738 39.8871044,3.12587021 38.9825757,4.05883966 L34.5937234,8.39548759 L39.6007469,8.39548759 C44.2396907,8.39604278 48,12.1155197 48,16.703535 L48,35.6919526 C48,37.8953838 47.1149741,40.0085681 45.539618,41.5666293 C43.9642619,43.1246904 41.8276204,44 39.5997304,44 L8.39925309,44 C3.7607062,43.9994449 0.000561273464,40.2805806 0,35.692958 L0,16.7025296 C0.000561273464,12.114907 3.7607062,8.3960427 8.39925309,8.39548759 L13.4032271,8.39548759 L9.01640781,4.05477455 C8.40971011,3.45474531 8.17276347,2.58017944 8.39482339,1.76051747 C8.61688331,0.940855496 9.26421361,0.300623566 10.0929712,0.0809908592 C10.9217288,-0.138641847 11.8060058,0.0956921032 12.4127034,0.695721377 L12.4127034,0.69777579 Z M39.5997304,13.1430619 L8.39925309,13.1430619 C6.54559008,13.1434565 4.99524147,14.5359157 4.81675917,16.3607102 L4.79925751,16.7025296 L4.79925751,35.6909035 C4.79925751,37.5249677 6.2077821,39.0590388 8.05363937,39.2351162 L8.39925309,39.252382 L39.5997304,39.252382 C41.4541007,39.2518873 43.0047212,37.8583136 43.1822243,36.0327229 L43.1996818,35.6919526 L43.1996818,16.7025296 C43.1996818,14.7361517 41.5879358,13.1420565 39.5997304,13.1420565 L39.5997304,13.1430619 Z M14.3998497,20.2639642 C15.7251281,20.2639642 16.7994785,21.3265637 16.7994785,22.6372926 L16.7994785,27.3849106 C16.7714665,28.6760728 15.7051366,29.7083097 14.3993415,29.7083097 C13.0935464,29.7083097 12.0272165,28.6760728 11.9992045,27.3849106 L11.9992045,22.6372926 C11.9992045,22.0076766 12.2521443,21.4038587 12.7023832,20.9587432 C13.152622,20.5136277 13.7632449,20.2636977 14.3998497,20.2639642 L14.3998497,20.2639642 Z M33.5990454,20.2639644 C34.2356426,20.2637414 34.8462587,20.5136654 35.2964963,20.9587715 C35.7467338,21.4038776 35.9996906,22.0076841 35.9996906,22.6372926 L35.9996906,27.3849106 C35.9996906,28.695917 34.9251127,29.7586977 33.5995536,29.7586977 C32.2739946,29.7586977 31.1994166,28.695917 31.1994166,27.3849106 L31.1994166,22.6372926 C31.1994166,22.0078508 31.452217,21.4041854 31.902236,20.9590988 C32.3522549,20.5140121 32.9626166,20.2639644 33.5990454,20.2639644 L33.5990454,20.2639644 Z" id="形状"></path>
        </g>
    </g>
</svg>