<?xml version="1.0" standalone="no"?><!DOCTYPE svg PUBLIC "-//W3C//DTD SVG 1.1//EN" "http://www.w3.org/Graphics/SVG/1.1/DTD/svg11.dtd"><svg t="1752832424754" class="icon" viewBox="0 0 1024 1024" version="1.1" xmlns="http://www.w3.org/2000/svg" p-id="42588" xmlns:xlink="http://www.w3.org/1999/xlink" width="48" height="48"><path d="M597.162667 59.946667a167.68 167.68 0 0 1 81.408 151.808v31.317333a178.56 178.56 0 0 1 114.304 124.16 137.173333 137.173333 0 0 0 95.872-120.533333 37.589333 37.589333 0 1 1 75.178666 0 212.053333 212.053333 0 0 1-165.376 196.821333l-0.042666 85.12h104.106666a37.632 37.632 0 0 1 0 75.264l-104.106666-0.042667v56.746667c0 17.28-1.578667 34.346667-4.693334 51.072a213.845333 213.845333 0 0 1 165.546667 197.12 37.546667 37.546667 0 0 1-34.517333 37.546667 37.546667 37.546667 0 0 1-37.589334-37.546667 139.52 139.52 0 0 0-116.48-125.738667 286.165333 286.165333 0 0 1-259.498666 163.328 286.165333 286.165333 0 0 1-258.218667-163.413333A139.392 139.392 0 0 0 135.253333 908.8a37.589333 37.589333 0 1 1-75.221333 0 214.016 214.016 0 0 1 169.813333-198.144 287.530667 287.530667 0 0 1-4.394666-50.005333l-0.042667-56.789334h-103.68a37.546667 37.546667 0 0 1 0-75.178666h103.722667v-84.736A211.669333 211.669333 0 0 1 60.16 247.04a37.589333 37.589333 0 0 1 75.221333 0 136.874667 136.874667 0 0 0 95.616 120.618667 178.517333 178.517333 0 0 1 112.64-124.074667v-31.872a167.68 167.68 0 0 1 253.568-151.808z m21.290666 249.941333H403.754667a79.701333 79.701333 0 0 0-16.512 0l-16.170667 2.645333A103.082667 103.082667 0 0 0 301.098667 401.066667a37.674667 37.674667 0 0 1-0.341334 21.930666v236.501334a210.474667 210.474667 0 0 0 405.248 80.213333l-0.341333 4.010667c0-7.808 2.304-15.018667 6.4-21.077334 6.314667-19.882667 9.728-41.130667 9.728-63.146666l-0.085333-242.218667a38.058667 38.058667 0 0 1-0.170667-11.264l0.256 5.333333a103.424 103.424 0 0 0-81.621333-100.693333l-5.248-0.810667a79.701333 79.701333 0 0 0-16.469334 0z m-107.178666 66.56a37.546667 37.546667 0 0 1 37.589333 37.546667v330.88a37.632 37.632 0 0 1-75.221333-1.536V413.994667a37.546667 37.546667 0 0 1 37.632-37.546667z m-48.128-249.685333a92.586667 92.586667 0 0 0-44.373334 84.992v21.461333h184.661334v-21.461333a92.501333 92.501333 0 0 0-140.245334-84.992h-0.042666z" p-id="42589" fill="#CD3021"></path></svg>