<?xml version="1.0" encoding="UTF-8"?>
<svg width="134px" height="134px" viewBox="0 0 134 134" version="1.1" xmlns="http://www.w3.org/2000/svg" xmlns:xlink="http://www.w3.org/1999/xlink">
    <title>chat</title>
    <g id="产品图" stroke="none" stroke-width="1" fill="none" fill-rule="evenodd">
        <g id="画板" transform="translate(-5342.000000, -6724.000000)" fill="#FFFFFF" fill-rule="nonzero">
            <g id="编组-2" transform="translate(5281.000000, 6663.000000)">
                <g id="chat" transform="translate(61.000000, 61.000000)">
                    <path d="M66.9998466,0 C104.154356,0 134,30.1500115 134,67.0000767 C134,88.0135956 124.558942,106.590829 109.63635,118.772717 L109.63635,127.909056 C109.63635,130.954605 106.590798,134 103.545399,134 L64.2590031,134 C28.6271166,132.477226 0,102.936324 0,66.9999233 C0,30.1500115 29.8454908,0 67,0 L66.9998466,0 Z M93.7999387,53.5999693 C90.1366884,53.5999693 87.1599909,56.5400126 87.1007974,60.1891503 L87.0998773,60.300023 C87.0998773,71.4009405 78.1007768,80.4000307 66.9998466,80.4000307 C55.8989165,80.4000307 46.899816,71.4009405 46.899816,60.300023 L46.8988959,60.1891503 C46.8398557,56.5400126 43.8631582,53.5999693 40.199908,53.5999693 C36.4995468,53.5999693 33.4998466,56.5996661 33.4998466,60.2998697 C33.4998466,60.3394342 33.4998466,60.378692 33.4998466,60.4182565 C33.563794,78.8654483 48.5377587,93.7999847 66.9998466,93.7999847 C85.5014992,93.7999847 100.5,78.801501 100.5,60.300023 L100.49908,60.1891503 C100.439886,56.5400126 97.4631889,53.5999693 93.7999387,53.5999693 L93.7999387,53.5999693 Z" id="形状"></path>
                </g>
            </g>
        </g>
    </g>
</svg>