<?xml version="1.0" standalone="no"?><!DOCTYPE svg PUBLIC "-//W3C//DTD SVG 1.1//EN" "http://www.w3.org/Graphics/SVG/1.1/DTD/svg11.dtd"><svg t="1747881702366" class="icon" viewBox="0 0 1024 1024" version="1.1" xmlns="http://www.w3.org/2000/svg" p-id="4041" xmlns:xlink="http://www.w3.org/1999/xlink" width="200" height="200"><path d="M768 36.352H35.328V904.192H768V36.352zM706.048 842.24H97.28V98.304h608.256V842.24z" fill="#333333" p-id="4042"></path><path d="M154.624 502.784H634.88v34.304h-480.256zM154.624 588.8H634.88v34.304h-480.256zM155.136 664.064h480.256v34.304h-480.256zM155.136 750.08h480.256v34.304h-480.256zM408.576 171.008h220.16v34.304h-220.16zM408.576 257.024h220.16v34.304h-220.16zM413.184 332.288h220.672v34.304h-220.672z" fill="#333333" p-id="4043"></path><path d="M795.136 140.288v62.464h19.968V946.176H206.848v-14.848h-62.464V1008.64h733.184V140.288z" fill="#333333" p-id="4044"></path><path d="M413.184 418.304h220.672v34.304h-220.672zM367.104 174.08h-224.256v261.12h224.256v-261.12z m-41.984 211.456v1.024c0 14.848-31.744 27.136-71.168 27.136s-71.168-12.288-71.168-27.136V341.504h0.512c2.56-14.336 14.848-26.112 31.744-33.792l19.968-7.68 0.512-8.192c-8.192-6.144-14.336-16.896-16.384-29.696-4.608-0.512-8.192-5.12-8.192-11.264 0-4.608 2.048-8.192 5.12-10.24 0 0-11.776-34.816 12.8-48.128 0 0 48.64-21.504 51.2 6.144 19.968 9.216 10.24 40.96 10.24 40.96 4.096 1.024 7.168 5.632 7.168 10.752 0 6.144-4.096 11.264-8.704 11.264h-0.512c-2.048 11.264-6.656 20.992-13.824 27.648l0.512 9.216 17.92 9.216c17.408 7.68 29.184 19.456 31.744 33.792h0.512v44.032z" fill="#333333" p-id="4045"></path></svg>