<?xml version="1.0" encoding="UTF-8"?>
<svg width="48px" height="48px" viewBox="0 0 48 48" version="1.1" xmlns="http://www.w3.org/2000/svg" xmlns:xlink="http://www.w3.org/1999/xlink">
    <title>抖音</title>
    <g id="抖音" stroke="none" stroke-width="1" fill="none" fill-rule="evenodd">
        <g id="编组-2" transform="translate(3.600000, 0.000000)" fill="#FFFFFF" fill-rule="nonzero">
            <g id="编组">
                <path d="M40.7429814,19.869913 C36.730732,19.8711479 32.8252564,18.5924456 29.6074534,16.224 L29.6074534,32.738087 C29.6074534,41.1693913 22.9806212,48 14.8037267,48 C6.62683223,48 0,41.1693913 0,32.738087 C0,24.3046957 6.62683228,17.474087 14.8037267,17.474087 C15.6209938,17.474087 16.415031,17.5450435 17.1900621,17.6765217 L17.1900621,26.4229565 C16.4495047,26.1382126 15.6617164,25.992417 14.8670807,25.9930435 C11.2178882,25.9930435 8.25714286,29.04 8.25714286,32.8027826 C8.25714286,36.5634783 11.2178882,39.6146087 14.8670807,39.6146087 C18.5099379,39.6146087 21.4685714,36.5634782 21.4685714,32.8027826 L21.4685714,0 L29.7257143,0 C29.7257143,6.30469566 34.6842236,11.4156522 40.8,11.4156522 L40.8,19.8657391 L40.7429814,19.869913" id="路径"></path>
            </g>
        </g>
    </g>
</svg>