<?xml version="1.0" encoding="UTF-8"?>
<svg width="48px" height="48px" viewBox="0 0 48 48" version="1.1" xmlns="http://www.w3.org/2000/svg" xmlns:xlink="http://www.w3.org/1999/xlink">
    <title>Instagram</title>
    <g id="Instagram" stroke="none" stroke-width="1" fill="none" fill-rule="evenodd">
        <g id="编组-2" fill="#FFFFFF" fill-rule="nonzero">
            <g id="编组">
                <path d="M23.9998571,0 C17.4815891,0 16.6691631,0.0294343532 14.1098642,0.146314455 C12.1208715,0.185701161 10.1532094,0.564456133 8.29171702,1.26624873 C5.0571841,2.50245235 2.50210699,5.0575903 1.26593281,8.29220025 C0.562549629,10.152677 0.183840009,12.1201194 0.14631097,14.1087714 C0.0314339975,16.6701316 0,17.4828627 0,23.9989998 C0,30.5171373 0.0314339975,31.3447284 0.14631097,33.9040883 C0.186552216,35.893012 0.565170852,37.8605615 1.26593281,39.722374 C2.51424857,42.949094 5.06507392,45.4999801 8.29171702,46.7483256 C10.1541241,47.4449915 12.1217334,47.8188075 14.1098642,47.8536855 C16.6691631,47.9705656 17.4838752,48 23.9998571,48 C30.5161248,48 31.3454108,47.9705656 33.904424,47.8536855 C35.892629,47.8168661 37.8601178,47.4424149 39.7228569,46.7463252 C42.9407909,45.4863993 45.4867449,42.9403846 46.7466408,39.722374 C47.4423224,37.8595904 47.8166588,35.8921998 47.853689,33.9040883 C47.9682802,31.3447284 48,30.5157084 48,24.001286 C48,17.4828627 47.968566,16.6681312 47.853689,14.1090571 C47.8195971,12.1211993 47.4451637,10.153879 46.7466408,8.29248602 C45.4988061,5.06614928 42.9487614,2.51531759 39.7228569,1.2665345 C37.8604118,0.565306713 35.8920972,0.186574932 33.9024236,0.146600225 C31.3431247,0.0297201236 30.5138387,0 23.997571,0 L23.9998571,0 L23.9998571,0 Z M23.9998571,4.33485149 C30.4135357,4.33485149 31.169952,4.34942578 33.6998172,4.46459126 C35.2195515,4.48437074 36.7246138,4.76487905 38.1494425,5.29389702 C40.2485167,6.0968565 41.9088745,7.75195767 42.7185169,9.84850596 C43.2399258,11.2794219 43.5154806,12.7882457 43.5335147,14.3110968 C43.6481059,16.8430227 43.6798257,17.599457 43.6798257,23.998714 C43.6798257,30.4002572 43.6483917,31.1686939 43.5335147,33.7011913 C43.5161527,35.2199218 43.2405552,36.7246312 42.7185169,38.1509225 C42.3309971,39.1951548 41.715026,40.1395882 40.9156342,40.9151798 C40.1429968,41.7182135 39.1977267,42.3348515 38.1514428,42.7183911 C36.7249904,43.240054 35.2202737,43.5155517 33.7015318,43.5331226 C31.1696662,43.6500027 30.4132499,43.679437 23.9995714,43.679437 C17.5858928,43.679437 16.8440505,43.6500027 14.3121848,43.5331226 C12.7887294,43.5152403 11.2792744,43.2397773 9.8476999,42.7183911 C8.80600891,42.3343173 7.86569579,41.7175916 7.09836817,40.9151798 C6.29870833,40.1397529 5.68261222,39.1952776 5.29519977,38.1509225 C4.77362679,36.724014 4.49336317,35.2201929 4.46591376,33.7011913 C4.34903644,31.1689796 4.3344625,30.4128311 4.3344625,23.998714 C4.3344625,17.5848827 4.34903644,16.8430227 4.46591376,14.3110968 C4.49295446,12.7872183 4.77320541,11.2784434 5.29519977,9.84650556 C6.10498244,7.7564444 7.75740275,6.10398474 9.84741414,5.29418279 C11.277478,4.76546925 12.7873656,4.48499827 14.3118991,4.46487703 C16.8443362,4.34971155 17.6007525,4.33485149 23.9998571,4.33485149 L23.9998571,4.33485149 Z M23.9998571,11.6785797 C17.1923963,11.683152 11.6774443,17.2056654 11.6820137,24.0132883 C11.6868745,30.8209113 17.2089706,36.3359946 24.0164314,36.3314251 C30.8230349,36.3265641 36.3374154,30.8051939 36.3339878,23.9984283 C36.3362723,17.1965207 30.824178,11.6805801 24.0224324,11.678294 L23.9972852,11.678294 L23.9998571,11.678294 L23.9998571,11.6785797 Z M23.9998571,31.9982854 C19.5819516,31.9982854 16.0004763,28.4167247 16.0004763,23.9984283 C16.0004763,19.5804176 19.5819516,15.9988569 23.9998571,15.9988569 C28.4177626,15.9988569 31.999238,19.5804176 31.999238,23.9984283 C31.999238,28.4167247 28.4177626,31.9982854 23.9998571,31.9982854 Z M39.6934233,11.2002 C39.6934233,12.7907982 38.4040578,14.0801943 36.8137833,14.0801943 C35.2235088,14.0801943 33.9341434,12.7907982 33.9341434,11.2002 C33.9341434,9.60960189 35.2235088,8.32020575 36.8137833,8.32020575 C38.4040578,8.32020575 39.6934233,9.60960189 39.6934233,11.2002 Z" id="形状"></path>
            </g>
        </g>
    </g>
</svg>