<?xml version="1.0" standalone="no"?><!DOCTYPE svg PUBLIC "-//W3C//DTD SVG 1.1//EN" "http://www.w3.org/Graphics/SVG/1.1/DTD/svg11.dtd"><svg t="1745493503056" class="icon" viewBox="0 0 1024 1024" version="1.1" xmlns="http://www.w3.org/2000/svg" p-id="5681" xmlns:xlink="http://www.w3.org/1999/xlink" width="200" height="200"><path d="M512 106.6496a405.3504 405.3504 0 1 1 0 810.7008 405.3504 405.3504 0 0 1 0-810.7008m0-64a469.3504 469.3504 0 1 0 0 938.7008A469.3504 469.3504 0 0 0 512 42.6496z m258.7648 448L621.4144 320a32.2048 32.2048 0 1 0-48.1792 42.6496l102.8096 117.5552H277.3504a32 32 0 0 0 0 64h398.6944l-102.8096 117.1456a32.2048 32.2048 0 1 0 48.1792 42.6496l149.3504-170.6496a32 32 0 0 0 0-42.7008z" fill="#8a8a8a" p-id="5682"></path></svg>