<?xml version="1.0" standalone="no"?><!DOCTYPE svg PUBLIC "-//W3C//DTD SVG 1.1//EN" "http://www.w3.org/Graphics/SVG/1.1/DTD/svg11.dtd"><svg t="1747881865032" class="icon" viewBox="0 0 1024 1024" version="1.1" xmlns="http://www.w3.org/2000/svg" p-id="5180" xmlns:xlink="http://www.w3.org/1999/xlink" width="200" height="200"><path d="M502.339623 933.836478c231.849057 0 418.616352-186.767296 418.616352-418.616352s-186.767296-418.616352-418.616352-418.616352S83.72327 283.371069 83.72327 515.220126s186.767296 418.616352 418.616353 418.616352m0 64.402516C238.289308 998.238994 19.320755 779.27044 19.320755 515.220126S238.289308 32.201258 502.339623 32.201258s483.018868 218.968553 483.018868 483.018868-212.528302 483.018868-483.018868 483.018868z" p-id="5181" fill="#333333"></path><path d="M296.251572 334.893082l45.081761-45.081761 386.415095 386.415094-45.081761 45.081761-386.415095-386.415094" p-id="5182" fill="#333333"></path><path d="M682.666667 309.132075l45.081761 45.081761-386.415095 386.415095-45.081761-45.081761 386.415095-386.415095" p-id="5183" fill="#333333"></path></svg>