<?xml version="1.0" standalone="no"?><!DOCTYPE svg PUBLIC "-//W3C//DTD SVG 1.1//EN" "http://www.w3.org/Graphics/SVG/1.1/DTD/svg11.dtd"><svg t="1752831064200" class="icon" viewBox="0 0 1024 1024" version="1.1" xmlns="http://www.w3.org/2000/svg" p-id="22311" xmlns:xlink="http://www.w3.org/1999/xlink" width="48" height="48"><path d="M924.074667 706.56a42.666667 42.666667 0 0 1-17.749334 57.642667l-374.485333 198.144a42.666667 42.666667 0 0 1-39.936 0l-374.485333-198.144a42.666667 42.666667 0 1 1 39.936-75.434667l354.56 187.605333 354.517333-187.605333a42.666667 42.666667 0 0 1 57.642667 17.749333z m0-213.333333a42.666667 42.666667 0 0 1-17.749334 57.642666l-374.485333 198.144a42.666667 42.666667 0 0 1-39.936 0l-374.485333-198.144a42.666667 42.666667 0 1 1 39.936-75.434666l354.56 187.605333 354.517333-187.605333a42.666667 42.666667 0 0 1 57.642667 17.749333zM531.84 64l374.485333 198.101333a42.666667 42.666667 0 0 1 0 75.434667l-374.485333 198.144a42.666667 42.666667 0 0 1-39.936 0L117.418667 337.536a42.666667 42.666667 0 0 1 0-75.434667L491.946667 64a42.666667 42.666667 0 0 1 39.936 0z m-19.968 85.930667L228.693333 299.818667l283.221334 149.888 283.221333-149.888-283.221333-149.888z" fill="#37AB59" p-id="22312"></path></svg>