<?xml version="1.0" encoding="UTF-8"?>
<svg width="48px" height="48px" viewBox="0 0 48 48" version="1.1" xmlns="http://www.w3.org/2000/svg" xmlns:xlink="http://www.w3.org/1999/xlink">
    <title>微信</title>
    <g id="微信" stroke="none" stroke-width="1" fill="none" fill-rule="evenodd">
        <g id="编组-2" transform="translate(0.000000, 5.000000)" fill="#FFFFFF" fill-rule="nonzero">
            <g id="编组">
                <path d="M32.49,11.7393139 C33.0419999,11.7393139 33.5849999,11.7809956 34.1309999,11.8405406 C32.661,5.04644603 25.3439999,0 16.989,0 C7.64999999,0 0,6.31475648 0,14.338457 C0,18.9680876 2.544,22.7700414 6.798,25.7234777 L5.09999999,30.7937419 L11.04,27.8403056 C13.164,28.254144 14.868,28.6828686 16.989,28.6828686 C17.523,28.6828686 18.051,28.6590505 18.5729999,28.6203462 C18.2429999,27.4919668 18.048,26.3129741 18.048,25.083368 C18.051,17.7176407 24.423,11.7393139 32.49,11.7393139 L32.49,11.7393139 Z M23.3579999,7.16922851 C24.642,7.16922851 25.485,8.00583696 25.485,9.2741474 C25.485,10.5365032 24.642,11.3820435 23.3579999,11.3820435 C22.0889999,11.3820435 20.8109999,10.5365032 20.8109999,9.2741474 C20.8109999,8.00285977 22.0859999,7.16922851 23.3579999,7.16922851 L23.3579999,7.16922851 Z M11.4689999,11.3820435 C10.1939999,11.3820435 8.90999999,10.5365032 8.90999999,9.2741474 C8.90999999,8.00583696 10.1939999,7.16922851 11.4689999,7.16922851 C12.744,7.16922851 13.59,8.00285977 13.59,9.2741474 C13.59,10.5365032 12.744,11.3820435 11.4689999,11.3820435 L11.4689999,11.3820435 Z M48,24.8809147 C48,18.1404108 41.2019999,12.6473766 33.5669999,12.6473766 C25.482,12.6473766 19.119,18.1433881 19.119,24.8809147 C19.119,31.6392821 25.485,37.1144529 33.5669999,37.1144529 C35.259,37.1144529 36.9659999,36.69466 38.664,36.2718899 L43.323,38.8085106 L42.045,34.5927184 C45.4559999,32.0501432 48,28.6828686 48,24.8809147 L48,24.8809147 Z M28.881,22.7700414 C28.0379999,22.7700414 27.183,21.9364101 27.183,21.0849155 C27.183,20.2453297 28.0379999,19.3997894 28.881,19.3997894 C30.171,19.3997894 31.008,20.2453297 31.008,21.0849155 C31.008,21.9364101 30.171,22.7700414 28.881,22.7700414 L28.881,22.7700414 Z M38.2259999,22.7700414 C37.3889999,22.7700414 36.537,21.9364101 36.537,21.0849155 C36.537,20.2453297 37.386,19.3997894 38.2259999,19.3997894 C39.5039999,19.3997894 40.3529999,20.2453297 40.3529999,21.0849155 C40.3529999,21.9364101 39.5039999,22.7700414 38.2259999,22.7700414 L38.2259999,22.7700414 Z" id="形状"></path>
            </g>
        </g>
    </g>
</svg>