<?xml version="1.0" encoding="UTF-8"?>
<svg width="48px" height="48px" viewBox="0 0 48 48" version="1.1" xmlns="http://www.w3.org/2000/svg" xmlns:xlink="http://www.w3.org/1999/xlink">
    <title>微博</title>
    <g id="微博" stroke="none" stroke-width="1" fill="none" fill-rule="evenodd">
        <g id="编组-2" transform="translate(0.000000, 4.000000)" fill="#FFFFFF" fill-rule="nonzero">
            <g id="编组">
                <path d="M38.6678668,21.4822771 C39.4455446,22.0837809 39.9927993,22.8070175 40.309631,23.6519871 C40.6264626,24.4969567 40.7560756,25.37773 40.6984698,26.2943072 C40.6408641,27.2108844 40.4392439,28.1274615 40.0936094,29.0440387 C39.7479748,29.9606158 39.3015302,30.7912639 38.7542754,31.5359828 C37.7749775,32.8822055 36.6660666,34.027927 35.4275428,34.9731472 C34.1890189,35.9183673 32.9072907,36.7060508 31.5823582,37.3361976 C30.2574257,37.9663444 28.9252925,38.4604368 27.5859586,38.8184748 C26.2466247,39.1765127 24.9864986,39.4414608 23.8055806,39.613319 C22.6246625,39.7851772 21.5661566,39.8925886 20.630063,39.9355532 C19.6939694,39.9785177 18.9666967,40 18.4482448,40 C17.929793,40 17.2385239,39.9641962 16.3744374,39.8925886 C15.510351,39.820981 14.5526553,39.6777658 13.5013501,39.4629431 C12.450045,39.2481203 11.3483348,38.9473684 10.1962196,38.5606874 C9.04410441,38.1740064 7.92079208,37.6655926 6.82628263,37.0354458 C5.73177318,36.405299 4.68766877,35.631937 3.6939694,34.7153598 C2.70027003,33.7987827 1.85778578,32.6960258 1.16651665,31.4070892 C0.705670567,30.5764411 0.396039604,29.688507 0.237623762,28.7432868 C0.0792079208,27.7980666 0,26.5950591 0,25.1342642 C0,24.5041174 0.108010801,23.7880415 0.324032403,22.9860365 C0.540054005,22.1840315 0.921692169,21.2960974 1.46894689,20.3222342 C2.01620162,19.3483709 2.76507651,18.2885786 3.71557156,17.1428571 C4.66606661,15.9971357 5.87578758,14.7368421 7.34473447,13.3619764 C8.78487849,12.0157537 10.2754275,10.8199069 11.8163816,9.77443609 C13.3573357,8.72896527 15.0063006,7.9197995 16.7632763,7.34693878 C17.569757,7.06050841 18.4626463,6.90297172 19.4419442,6.87432868 C20.4212421,6.84568564 21.2277228,7.00322234 21.8613861,7.34693878 C22.1494149,7.66201217 22.4230423,7.98424633 22.6822682,8.31364125 C22.9414941,8.64303616 23.1143114,9.05119943 23.2007201,9.53813104 C23.2871287,9.93913355 23.2943294,10.3258145 23.2223222,10.698174 C23.150315,11.0705335 23.0711071,11.4428929 22.9846985,11.8152524 C22.8982898,12.1876119 22.8262826,12.5456498 22.7686769,12.8893663 C22.7110711,13.2330827 22.739874,13.5481561 22.8550855,13.8345865 C23.3447345,13.8918725 23.819982,13.8703903 24.2808281,13.7701396 C24.7416742,13.669889 25.1881188,13.5409953 25.620162,13.3834586 C26.0522052,13.2259219 26.4914491,13.0612245 26.9378938,12.8893663 C27.3843384,12.7175081 27.8523852,12.5886144 28.3420342,12.5026853 C29.119712,12.3594701 29.890189,12.2950233 30.6534653,12.3093448 C31.4167417,12.3236663 32.1080108,12.4310777 32.7272727,12.6315789 C33.3465347,12.8320802 33.8577858,13.1399928 34.2610261,13.5553169 C34.6642664,13.9706409 34.9090909,14.5076978 34.9954995,15.1664876 C35.0531053,15.5674902 35.0243024,15.9398496 34.9090909,16.2835661 C34.7938794,16.6272825 34.6714671,16.9495166 34.5418542,17.2502685 C34.4122412,17.5510204 34.3114311,17.858933 34.2394239,18.1740064 C34.1674167,18.4890798 34.1890189,18.8184748 34.3042304,19.1621912 C34.3906391,19.3626924 34.5994599,19.5488722 34.9306931,19.7207304 C35.2619262,19.8925886 35.6435644,20.0644468 36.0756076,20.236305 C36.5076508,20.4081633 36.9612961,20.594343 37.4365437,20.7948443 C37.9117912,20.9953455 38.3222322,21.2244898 38.6678668,21.4822771 Z M27.780378,34.8442535 C28.5292529,34.3859649 29.2853285,33.7558181 30.0486049,32.9538131 C30.8118812,32.1518081 31.4311431,31.2567132 31.9063906,30.2685285 C32.3816382,29.2803437 32.6480648,28.2205514 32.7056706,27.0891515 C32.7632763,25.9577515 32.4752475,24.8191908 31.8415842,23.6734694 C31.2943294,22.7282492 30.6246625,21.9262442 29.8325833,21.2674544 C29.0405041,20.6086645 28.1548155,20.0859291 27.1755176,19.6992481 C26.1962196,19.3125671 25.1521152,19.0332975 24.0432043,18.8614393 C22.9342934,18.6895811 21.8037804,18.603652 20.6516652,18.603652 C18.4338434,18.603652 16.4680468,18.8327963 14.7542754,19.2910849 C13.0405041,19.7493734 11.5571557,20.3508772 10.3042304,21.0955961 C9.05130513,21.8403151 8.0360036,22.6852846 7.25832583,23.6305048 C6.48064806,24.575725 5.93339334,25.5352667 5.61656166,26.50913 C5.29972997,27.4543502 5.20612061,28.3924096 5.33573357,29.3233083 C5.46534653,30.2542069 5.76057606,31.1349803 6.22142214,31.9656284 C6.68226823,32.7962764 7.27992799,33.5409953 8.01440144,34.1997852 C8.74887489,34.858575 9.56255626,35.3884712 10.4554455,35.7894737 C12.0972097,36.5055496 13.7749775,36.9566774 15.4887489,37.1428571 C17.2025203,37.3290369 18.8370837,37.3361976 20.3924392,37.1643394 C21.9477948,36.9924812 23.3663366,36.6917293 24.6480648,36.2620838 C25.929793,35.8324382 26.9738974,35.3598281 27.780378,34.8442535 L27.780378,34.8442535 Z M22.1206121,21.2674544 C22.6966697,21.4965986 23.2439244,21.754386 23.7623762,22.0408163 C24.2808281,22.3272467 24.7416742,22.7139277 25.1449145,23.2008593 C25.4329433,23.5445757 25.6849685,23.9742213 25.9009901,24.4897959 C26.1170117,25.0053706 26.2682268,25.556749 26.3546355,26.1439313 C26.4410441,26.7311135 26.4626463,27.3254565 26.4194419,27.9269603 C26.3762376,28.528464 26.2394239,29.0726817 26.0090009,29.5596133 C25.7785779,30.075188 25.4977498,30.5979234 25.1665167,31.1278195 C24.8352835,31.6577157 24.4320432,32.1518081 23.9567957,32.6100967 C23.4815482,33.0683852 22.9126913,33.4765485 22.250225,33.8345865 C21.5877588,34.1926244 20.7812781,34.4575725 19.8307831,34.6294307 C18.1026103,34.9445041 16.4464446,34.7869674 14.8622862,34.1568206 C13.2781278,33.5266738 12.039604,32.481203 11.1467147,31.0204082 C10.8010801,29.9033298 10.6138614,28.915145 10.5850585,28.0558539 C10.5562556,27.1965628 10.7866787,26.2656642 11.2763276,25.2631579 C11.6507651,24.4897959 12.219622,23.7665593 12.9828983,23.0934479 C13.7461746,22.4203366 14.6246625,21.8761189 15.6183618,21.4607948 C16.6120612,21.0454708 17.6705671,20.802005 18.7938794,20.7303974 C19.9171917,20.6587898 21.0261026,20.8378088 22.1206121,21.2674544 Z M15.2511251,31.8367347 C16.3168317,31.9226638 17.1305131,31.6648765 17.6921692,31.0633727 C18.2538254,30.461869 18.5562556,29.7887576 18.5994599,29.0440387 C18.6426643,28.2993197 18.4266427,27.6333691 17.9513951,27.0461869 C17.4761476,26.4590047 16.7344734,26.2226996 15.7263726,26.3372718 C14.9486949,26.4232009 14.3438344,26.7525958 13.9117912,27.3254565 C13.479748,27.8983172 13.2349235,28.5069817 13.1773177,29.1514501 C13.119712,29.7959184 13.2565257,30.3902614 13.5877588,30.9344791 C13.9189919,31.4786967 14.4734473,31.7794486 15.2511251,31.8367347 Z M32.9216922,0 C35.0243024,0 36.990099,0.279269603 38.8190819,0.837808808 C40.6480648,1.39634801 42.2466247,2.20551378 43.6147615,3.26530612 C44.9828983,4.32509846 46.0558056,5.61403509 46.8334833,7.132116 C47.6111611,8.65019692 48,10.3687791 48,12.2878625 C48,13.2330827 47.769577,13.9419979 47.3087309,14.4146079 C46.8478848,14.887218 46.3510351,15.1306839 45.8181818,15.1450054 C45.2853285,15.1593269 44.7884788,14.9588256 44.3276328,14.5435016 C43.8667867,14.1281776 43.6363636,13.49087 43.6363636,12.6315789 C43.6363636,11.4858575 43.319532,10.3974221 42.6858686,9.36627282 C42.0522052,8.33512352 41.2169217,7.43286788 40.180018,6.65950591 C39.1431143,5.88614393 37.9549955,5.27747941 36.6156616,4.83351235 C35.2763276,4.38954529 33.9153915,4.16756176 32.5328533,4.16756176 C31.639964,4.16756176 30.9774977,3.95273899 30.5454545,3.52309345 C30.1134113,3.09344791 29.9117912,2.61367705 29.9405941,2.08378088 C29.9693969,1.55388471 30.2358236,1.07411386 30.739874,0.644468314 C31.2439244,0.214822771 31.9711971,0 32.9216922,0 L32.9216922,0 Z M32.9216922,6.87432868 C35.60036,6.87432868 37.6309631,7.55460079 39.0135014,8.91514501 C40.3960396,10.2756892 41.0873087,12.3308271 41.0873087,15.0805585 C41.0873087,15.9398496 40.9432943,16.5485141 40.6552655,16.9065521 C40.3672367,17.26459 40.050405,17.4221267 39.7047705,17.3791622 C39.3591359,17.3361976 39.0423042,17.1285356 38.7542754,16.7561762 C38.4662466,16.3838167 38.3222322,15.8825636 38.3222322,15.2524168 C38.3222322,13.5624776 37.8325833,12.2162549 36.8532853,11.2137487 C35.8739874,10.2112424 34.5634563,9.70998926 32.9216922,9.70998926 C32.3744374,9.70998926 31.9711971,9.55961332 31.7119712,9.25886144 C31.4527453,8.95810956 31.3231323,8.6358754 31.3231323,8.29215897 C31.3231323,7.94844253 31.459946,7.62620838 31.7335734,7.3254565 C32.0072007,7.02470462 32.4032403,6.87432868 32.9216922,6.87432868 L32.9216922,6.87432868 Z" id="形状"></path>
            </g>
        </g>
    </g>
</svg>