<?xml version="1.0" encoding="UTF-8"?>
<svg width="48px" height="48px" viewBox="0 0 48 48" version="1.1" xmlns="http://www.w3.org/2000/svg" xmlns:xlink="http://www.w3.org/1999/xlink">
    <title>YouTube</title>
    <g id="YouTube" stroke="none" stroke-width="1" fill="none" fill-rule="evenodd">
        <g id="编组-2" transform="translate(1.000000, 8.000000)" fill="#FFFFFF" fill-rule="nonzero">
            <path d="M45.040039,4.94118423 C44.4977869,3.00720939 42.9795146,1.49596073 41.0365515,0.956217122 C37.4510526,2.69626737e-05 23.0208576,2.69626737e-05 23.0208576,2.69626737e-05 C23.0208576,2.69626737e-05 8.62709286,-0.0190310689 5.0051638,0.956217122 C3.06220068,1.49596073 1.54392838,3.00720939 1.00167627,4.94118423 C0.322004877,8.59504514 -0.0130763788,12.3041415 0.000390255181,16.0200798 C-0.0104522857,19.7219964 0.324617986,23.4169147 1.00167627,27.0569882 C1.54392838,28.9909631 3.06220068,30.5022117 5.0051638,31.0419554 C8.5868279,32.000027 23.0208576,32.000027 23.0208576,32.000027 C23.0208576,32.000027 37.412705,32.000027 41.0365515,31.0419554 C42.9795146,30.5022117 44.4977869,28.9909631 45.040039,27.0569882 C45.7029522,23.4155963 46.0238998,19.7206886 45.9987286,16.0200798 C46.0265237,12.3054542 45.7055655,8.59636853 45.040039,4.94118423 L45.040039,4.94118423 Z M18.0003903,23.000027 L18.0003903,9.00002696 L30.0003903,16.0107318 L18.0003903,23.000027 Z" id="形状"></path>
        </g>
    </g>
</svg>